<svg width="25" height="24" viewBox="0 0 25 24" fill="none" xmlns="http://www.w3.org/2000/svg">
<path fill-rule="evenodd" clip-rule="evenodd" d="M12.4665 1.47239C10.7507 1.47239 9.35494 2.86034 9.35494 4.59137L9.35493 15.1525L19.905 15.1525C20.7657 15.1525 21.5431 14.8069 22.1059 14.2438C22.6688 13.6807 23.0166 12.9001 23.0166 12.0335C23.0166 10.3025 21.6208 8.91455 19.905 8.91455H15.5781V4.59137C15.5781 3.72481 15.2303 2.94423 14.6674 2.38107C14.1046 1.81803 13.3272 1.47239 12.4665 1.47239ZM15.5781 16.6249L9.35493 16.6249L9.35494 19.4086C9.35494 21.1397 10.7507 22.5276 12.4665 22.5276C14.1823 22.5276 15.5781 21.1397 15.5781 19.4086V16.6249ZM17.0615 16.6249L19.905 16.6249C21.1754 16.6249 22.3279 16.1123 23.159 15.2808C23.99 14.4494 24.5 13.299 24.5 12.0335C24.5 9.5004 22.4512 7.44215 19.905 7.44215H17.0615V4.59137C17.0615 3.32584 16.5515 2.17549 15.7205 1.34409C14.8894 0.512558 13.7369 0 12.4665 0C9.92026 0 7.8715 2.05824 7.8715 4.59137L7.87149 7.44215H5.095C2.54877 7.44215 0.5 9.50039 0.5 12.0335C0.5 14.5666 2.54877 16.6249 5.095 16.6249H7.87149L7.8715 19.4086C7.8715 21.9418 9.92026 24 12.4665 24C15.0127 24 17.0615 21.9418 17.0615 19.4086V16.6249ZM7.87149 15.1525L7.87149 8.91454H5.095C3.37917 8.91454 1.98344 10.3025 1.98344 12.0335C1.98344 13.7645 3.37917 15.1525 5.095 15.1525H7.87149Z" fill="#69779A"/>
</svg>
