<svg width="22" height="22" viewBox="0 0 22 22" fill="none" xmlns="http://www.w3.org/2000/svg">
<path d="M0.75 2.2C0.75 1.39919 1.39919 0.75 2.2 0.75H7.7C8.50081 0.75 9.15 1.39919 9.15 2.2V7.7C9.15 8.50081 8.50081 9.15 7.7 9.15H2.2C1.39919 9.15 0.75 8.50081 0.75 7.7V2.2ZM0.75 14.3C0.75 13.4992 1.39919 12.85 2.2 12.85H7.7C8.50081 12.85 9.15 13.4992 9.15 14.3V19.8C9.15 20.6008 8.50081 21.25 7.7 21.25H2.2C1.39919 21.25 0.75 20.6008 0.75 19.8V14.3ZM12.85 14.3C12.85 13.4992 13.4992 12.85 14.3 12.85H19.8C20.6008 12.85 21.25 13.4992 21.25 14.3V19.8C21.25 20.6008 20.6008 21.25 19.8 21.25H14.3C13.4992 21.25 12.85 20.6008 12.85 19.8V14.3ZM12.85 2.2C12.85 1.39919 13.4992 0.75 14.3 0.75H19.8C20.6008 0.75 21.25 1.39919 21.25 2.2V7.7C21.25 8.50081 20.6008 9.15 19.8 9.15H14.3C13.4992 9.15 12.85 8.50081 12.85 7.7V2.2Z" stroke="#FF5E5E" stroke-width="1.5"/>
</svg>
