<svg width="50" height="50" viewBox="0 0 50 50" fill="none" xmlns="http://www.w3.org/2000/svg">
<path fill-rule="evenodd" clip-rule="evenodd" d="M17.4058 17.5188V12.5376C17.4058 8.3698 20.7754 5 24.9432 5C27.0244 5 28.9137 5.83901 30.2777 7.20306C31.6417 8.5671 32.4807 10.4564 32.4807 12.5376V17.5188H37.4617C41.6295 17.5188 44.9992 20.8886 44.9992 25.0564C44.9992 27.1376 44.1602 29.0269 42.7962 30.3909C41.4322 31.755 39.5429 32.594 37.4617 32.594H32.4807V37.4624C32.4807 41.6302 29.111 45 24.9432 45C20.7754 45 17.4058 41.6302 17.4058 37.4624V32.594L12.5374 32.594C8.36969 32.594 5 29.2242 5 25.0564C5 20.8886 8.36969 17.5188 12.5374 17.5188H17.4058ZM19.511 12.5376C19.511 9.53246 21.9382 7.10526 24.9432 7.10526C27.9537 7.10526 30.3754 9.52704 30.3754 12.5376V19.6241H37.4617C40.4667 19.6241 42.8939 22.0513 42.8939 25.0564C42.8939 28.067 40.4722 30.4887 37.4617 30.4887L19.511 30.4887V12.5376ZM19.511 32.594V37.4624C19.511 40.4675 21.9382 42.8947 24.9432 42.8947C27.9482 42.8947 30.3754 40.4675 30.3754 37.4624V32.594H19.511ZM12.5374 19.624C9.53244 19.624 7.10526 22.0512 7.10526 25.0564C7.10526 28.0615 9.53244 30.4887 12.5374 30.4887H17.4057V19.624H12.5374Z" fill="#DD284A"/>
</svg>
