<svg width="20" height="20" viewBox="0 0 20 20" fill="none" xmlns="http://www.w3.org/2000/svg">
<path fill-rule="evenodd" clip-rule="evenodd" d="M1.66656 9.9974C1.66656 14.5998 5.39753 18.3307 9.9999 18.3307C14.6023 18.3307 18.3332 14.5998 18.3332 9.9974C18.3332 5.39502 14.6023 1.66406 9.9999 1.66406C5.39753 1.66406 1.66656 5.39502 1.66656 9.9974ZM12.2216 6.66781C11.7865 4.19461 10.9024 2.50114 10.0008 2.50114C9.09919 2.50114 8.21511 4.19461 7.77995 6.66781H12.2216ZM3.27893 6.66292H6.92746C7.20947 4.9653 7.70674 3.5606 8.35601 2.67684C6.12606 3.17532 4.27092 4.6668 3.27893 6.66292ZM6.81112 12.4931H2.92797C2.65159 11.7111 2.5012 10.8697 2.5012 9.99308C2.5012 9.11649 2.65159 8.27503 2.92797 7.49308H6.81112C6.71745 8.28279 6.66787 9.1227 6.66787 9.99308C6.66787 10.8635 6.71745 11.7034 6.81112 12.4931ZM8.35601 17.3186C6.12606 16.8201 4.27092 15.3286 3.27893 13.3325H6.92746C7.20947 15.0301 7.70674 16.4348 8.35601 17.3186ZM17.0736 12.4931C17.35 11.7111 17.5004 10.8697 17.5004 9.99308C17.5004 9.11649 17.35 8.27503 17.0736 7.49308H13.1905C13.2841 8.28279 13.3337 9.1227 13.3337 9.99308C13.3337 10.8635 13.2841 11.7034 13.1905 12.4931H17.0736ZM13.0713 13.3325H16.7198C15.7279 15.3286 13.8727 16.8201 11.6428 17.3186C12.292 16.4348 12.7893 15.0301 13.0713 13.3325ZM7.65456 12.4931H12.3472C12.4459 11.7117 12.5009 10.8704 12.5009 9.99308C12.5009 9.11573 12.4459 8.27443 12.3472 7.49308H7.65456C7.55588 8.27443 7.5009 9.11573 7.5009 9.99308C7.5009 10.8704 7.55588 11.7117 7.65456 12.4931ZM10.0008 17.4992C9.09919 17.4992 8.21511 15.8057 7.77995 13.3325H12.2216C11.7865 15.8057 10.9024 17.4992 10.0008 17.4992ZM11.6428 2.67684C13.8727 3.17532 15.7279 4.6668 16.7198 6.66292H13.0713C12.7893 4.9653 12.292 3.5606 11.6428 2.67684Z" fill="white"/>
</svg>
