<svg width="46" height="46" viewBox="0 0 46 46" fill="none" xmlns="http://www.w3.org/2000/svg">
<path d="M23 46C35.7025 46 46 35.7025 46 23C46 10.2975 35.7025 0 23 0C10.2975 0 0 10.2975 0 23C0 35.7025 10.2975 46 23 46Z" fill="#5D9BF8"/>
<path d="M31.5777 24.9655L28.0655 23L31.5777 21.0345C31.982 20.8078 32.1195 20.3062 31.8869 19.9167L30.1984 17.0834C29.9642 16.6903 29.4456 16.5585 29.045 16.7838L25.5328 18.7485V14.8182C25.5328 14.3659 25.1551 14 24.6885 14H21.3115C20.8448 14 20.4672 14.3659 20.4672 14.8182V18.7485L16.955 16.7837C16.551 16.5584 16.0349 16.6902 15.8016 17.0833L14.1131 19.9166C14.001 20.1043 13.9712 20.3281 14.029 20.5374C14.0867 20.7468 14.2285 20.9257 14.4222 21.0344L17.9345 23L14.4222 24.9655C14.018 25.1922 13.8805 25.6938 14.1131 26.0833L15.8016 28.9166C16.0349 29.3081 16.551 29.44 16.955 29.2162L20.4672 27.2515V31.1818C20.4672 31.6341 20.8448 32 21.3115 32H24.6885C25.1551 32 25.5328 31.6341 25.5328 31.1818V27.2515L29.045 29.2163C29.4456 29.44 29.9642 29.3082 30.1984 28.9167L31.8869 26.0834C32.1199 25.6933 31.9814 25.1919 31.5777 24.9655Z" fill="white"/>
</svg>
