<svg width="36" height="37" viewBox="0 0 36 37" fill="none" xmlns="http://www.w3.org/2000/svg">
<rect y="0.5" width="36" height="36" rx="18" fill="white"/>
<rect y="0.5" width="36" height="36" rx="18" fill="#DD284A"/>
<path d="M16.8965 21.28L16.3245 14V8.8H19.7045V14L19.1065 21.28H16.8965ZM19.3925 26.74C19.0112 27.1213 18.5519 27.312 18.0145 27.312C17.4772 27.312 17.0179 27.1213 16.6365 26.74C16.2552 26.3587 16.0645 25.8993 16.0645 25.362C16.0645 24.8247 16.2465 24.3653 16.6105 23.984C16.9919 23.6027 17.4599 23.412 18.0145 23.412C18.5519 23.412 19.0112 23.6027 19.3925 23.984C19.7739 24.3653 19.9645 24.8247 19.9645 25.362C19.9645 25.8993 19.7739 26.3587 19.3925 26.74Z" fill="white"/>
</svg>
