<svg width="46" height="46" viewBox="0 0 46 46" fill="none" xmlns="http://www.w3.org/2000/svg">
<path d="M23 46C35.7025 46 46 35.7025 46 23C46 10.2975 35.7025 0 23 0C10.2975 0 0 10.2975 0 23C0 35.7025 10.2975 46 23 46Z" fill="#5D9BF8"/>
<path d="M15.126 19.6302H19.642V15.1252C19.642 14.5041 20.1449 14 20.7657 14H25.2603C25.8801 14 26.3828 14.504 26.3828 15.1252V19.6291H30.8752C31.4972 19.6291 32 20.1321 32 20.7543V25.256C32 25.8793 31.4972 26.3833 30.8752 26.3833H26.3828V30.8748C26.3828 31.497 25.8799 32 25.2603 32H20.7657C20.1449 32 19.642 31.497 19.642 30.8748V26.3833H15.126C14.504 26.3833 14 25.8793 14 25.256V20.7543C14 20.1332 14.504 19.6302 15.126 19.6302Z" fill="white"/>
</svg>
