<svg width="46" height="46" viewBox="0 0 46 46" fill="none" xmlns="http://www.w3.org/2000/svg">
<path d="M23 46C35.7025 46 46 35.7025 46 23C46 10.2975 35.7025 0 23 0C10.2975 0 0 10.2975 0 23C0 35.7025 10.2975 46 23 46Z" fill="#5D9BF8"/>
<path d="M31.528 27.2102L29.0108 24.6982C28.1117 23.8011 26.5834 24.16 26.2238 25.3262C25.9541 26.1337 25.0551 26.5822 24.246 26.4028C22.4479 25.9542 20.0206 23.6217 19.5711 21.7377C19.3014 20.9303 19.8408 20.0331 20.6499 19.764C21.8186 19.4052 22.1782 17.8801 21.2792 16.9829L18.762 14.471C18.0428 13.843 16.964 13.843 16.3347 14.471L14.6265 16.1755C12.9184 17.9698 14.8063 22.7245 19.0317 26.941C23.2571 31.1575 28.0218 33.1312 29.8199 31.3369L31.528 29.6324C32.1573 28.9147 32.1573 27.8382 31.528 27.2102Z" fill="white"/>
</svg>
