<svg width="24" height="24" viewBox="0 0 24 24" fill="none" xmlns="http://www.w3.org/2000/svg">
<path fill-rule="evenodd" clip-rule="evenodd" d="M2.99486 13.525L7.45568 11.2288C7.55181 11.1847 7.63628 11.1125 7.6955 11.0154C7.85368 10.7561 7.7717 10.4177 7.51238 10.2595C6.21055 9.46535 5.40005 8.05297 5.40005 6.50007C5.40005 4.06998 7.37003 2.10001 9.80011 2.10001C11.2762 2.10001 12.6276 2.83168 13.4421 4.03017C13.6129 4.28139 13.955 4.34664 14.2062 4.17589C14.4574 4.00514 14.5227 3.66306 14.3519 3.41183C13.3347 1.91515 11.6444 1 9.80011 1C6.76251 1 4.30004 3.46246 4.30004 6.50007C4.30004 8.11962 5.0061 9.61782 6.18498 10.6457L2.49141 12.547C1.5756 13.0184 1 13.9621 1 14.9921V15.8502C1 17.369 2.23125 18.6002 3.75011 18.6002C4.05387 18.6002 4.30012 18.354 4.30012 18.0502C4.30012 17.7465 4.05387 17.5002 3.75011 17.5002C2.83876 17.5002 2.10001 16.7615 2.10001 15.8502V14.9921C2.10001 14.3741 2.44537 13.8079 2.99486 13.525ZM7.46743 17.9624L11.9577 15.9214C12.6426 16.2276 13.4015 16.3979 14.2003 16.3979C14.999 16.3979 15.758 16.2276 16.4429 15.9214L20.9331 17.9624C21.5222 18.2302 21.9004 18.8175 21.9004 19.4646V20.248C21.9004 21.1592 21.1616 21.898 20.2504 21.898H8.15021C7.23893 21.898 6.50019 21.1592 6.50019 20.248V19.4646C6.50019 18.8175 6.87838 18.2302 7.46743 17.9624ZM10.8144 15.234C9.52733 14.2273 8.70002 12.6598 8.70002 10.8991C8.70002 7.86154 11.1625 5.39908 14.2001 5.39908C17.2377 5.39908 19.7002 7.86154 19.7002 10.8991C19.7002 12.6598 18.8728 14.2273 17.5858 15.234L21.3881 16.9623C22.3699 17.4086 23.0002 18.3875 23.0002 19.4659V20.2493C23.0002 21.7681 21.769 22.9993 20.2502 22.9993H8.15001C6.63121 22.9993 5.39998 21.7681 5.39998 20.2493V19.4659C5.39998 18.3875 6.03029 17.4086 7.01204 16.9623L10.8144 15.234ZM18.601 10.9002C18.601 13.3303 16.631 15.3003 14.2009 15.3003C11.7708 15.3003 9.80085 13.3303 9.80085 10.9002C9.80085 8.47016 11.7708 6.50019 14.2009 6.50019C16.631 6.50019 18.601 8.47016 18.601 10.9002Z" fill="#FF5E5E"/>
<path d="M7.45568 11.2288L7.35137 11.0013L7.34126 11.0065L7.45568 11.2288ZM2.99486 13.525L3.10928 13.7473H3.10928L2.99486 13.525ZM7.6955 11.0154L7.90892 11.1456L7.90892 11.1456L7.6955 11.0154ZM7.51238 10.2595L7.38219 10.4729H7.38219L7.51238 10.2595ZM13.4421 4.03017L13.2354 4.17069L13.2354 4.17069L13.4421 4.03017ZM14.2062 4.17589L14.0657 3.96912V3.96912L14.2062 4.17589ZM14.3519 3.41183L14.5587 3.27131L14.3519 3.41183ZM6.18498 10.6457L6.2994 10.868L6.62694 10.6994L6.34927 10.4573L6.18498 10.6457ZM2.49141 12.547L2.60583 12.7692H2.60583L2.49141 12.547ZM11.9577 15.9214L12.0597 15.6932L11.9568 15.6472L11.8542 15.6938L11.9577 15.9214ZM7.46743 17.9624L7.36398 17.7348V17.7348L7.46743 17.9624ZM16.4429 15.9214L16.5464 15.6938L16.4438 15.6472L16.3409 15.6932L16.4429 15.9214ZM20.9331 17.9624L21.0366 17.7348L20.9331 17.9624ZM10.8144 15.234L10.9179 15.4616L11.2931 15.291L10.9684 15.037L10.8144 15.234ZM17.5858 15.234L17.4317 15.037L17.1071 15.291L17.4823 15.4616L17.5858 15.234ZM21.3881 16.9623L21.4916 16.7347L21.3881 16.9623ZM7.01204 16.9623L6.90859 16.7347L7.01204 16.9623ZM7.34126 11.0065L2.88044 13.3027L3.10928 13.7473L7.57009 11.4511L7.34126 11.0065ZM7.48207 10.8852C7.44959 10.9385 7.40377 10.9776 7.35148 11.0016L7.55988 11.4561C7.69985 11.3919 7.82297 11.2865 7.90892 11.1456L7.48207 10.8852ZM7.38219 10.4729C7.52364 10.5592 7.56836 10.7438 7.48207 10.8852L7.90892 11.1456C8.13901 10.7684 8.01976 10.2761 7.64257 10.046L7.38219 10.4729ZM5.15005 6.50007C5.15005 8.14123 6.00689 9.63395 7.38219 10.4729L7.64257 10.046C6.41421 9.29674 5.65005 7.96471 5.65005 6.50007H5.15005ZM9.80011 1.85001C7.23195 1.85001 5.15005 3.93191 5.15005 6.50007H5.65005C5.65005 4.20806 7.5081 2.35001 9.80011 2.35001V1.85001ZM13.6489 3.88964C12.7884 2.62356 11.36 1.85001 9.80011 1.85001V2.35001C11.1923 2.35001 12.4668 3.03981 13.2354 4.17069L13.6489 3.88964ZM14.0657 3.96912C13.9286 4.06226 13.742 4.02667 13.6489 3.88964L13.2354 4.17069C13.4837 4.53612 13.9813 4.63101 14.3467 4.38265L14.0657 3.96912ZM14.1451 3.55236C14.2383 3.6894 14.2027 3.87599 14.0657 3.96912L14.3467 4.38265C14.7121 4.13429 14.807 3.63673 14.5587 3.27131L14.1451 3.55236ZM9.80011 1.25C11.5605 1.25 13.1739 2.1233 14.1451 3.55236L14.5587 3.27131C13.4955 1.70701 11.7282 0.75 9.80011 0.75V1.25ZM4.55004 6.50007C4.55004 3.60054 6.90058 1.25 9.80011 1.25V0.75C6.62443 0.75 4.05004 3.32439 4.05004 6.50007H4.55004ZM6.34927 10.4573C5.22387 9.47602 4.55004 8.0461 4.55004 6.50007H4.05004C4.05004 8.19315 4.78833 9.75963 6.02068 10.8341L6.34927 10.4573ZM2.60583 12.7692L6.2994 10.868L6.07056 10.4234L2.37699 12.3247L2.60583 12.7692ZM1.25 14.9921C1.25 14.0557 1.77327 13.1978 2.60583 12.7692L2.37699 12.3247C1.37792 12.839 0.75 13.8684 0.75 14.9921H1.25ZM1.25 15.8502V14.9921H0.75V15.8502H1.25ZM3.75011 18.3502C2.36931 18.3502 1.25 17.2309 1.25 15.8502H0.75C0.75 17.5071 2.09318 18.8502 3.75011 18.8502V18.3502ZM4.05012 18.0502C4.05012 18.2159 3.9158 18.3502 3.75011 18.3502V18.8502C4.19194 18.8502 4.55012 18.492 4.55012 18.0502H4.05012ZM3.75011 17.7502C3.9158 17.7502 4.05012 17.8845 4.05012 18.0502H4.55012C4.55012 17.6084 4.19194 17.2502 3.75011 17.2502V17.7502ZM1.85001 15.8502C1.85001 16.8996 2.7007 17.7502 3.75011 17.7502V17.2502C2.97682 17.2502 2.35001 16.6234 2.35001 15.8502H1.85001ZM1.85001 14.9921V15.8502H2.35001V14.9921H1.85001ZM2.88044 13.3027C2.2477 13.6284 1.85001 14.2804 1.85001 14.9921H2.35001C2.35001 14.4677 2.64305 13.9873 3.10928 13.7473L2.88044 13.3027ZM11.8542 15.6938L7.36398 17.7348L7.57088 18.19L12.0611 16.149L11.8542 15.6938ZM14.2003 16.1479C13.4374 16.1479 12.7131 15.9853 12.0597 15.6932L11.8556 16.1496C12.572 16.4699 13.3657 16.6479 14.2003 16.6479V16.1479ZM16.3409 15.6932C15.6875 15.9853 14.9632 16.1479 14.2003 16.1479V16.6479C15.0349 16.6479 15.8286 16.4699 16.545 16.1496L16.3409 15.6932ZM21.0366 17.7348L16.5464 15.6938L16.3395 16.149L20.8297 18.19L21.0366 17.7348ZM22.1504 19.4646C22.1504 18.7195 21.7149 18.0432 21.0366 17.7348L20.8297 18.19C21.3295 18.4172 21.6504 18.9155 21.6504 19.4646H22.1504ZM22.1504 20.248V19.4646H21.6504V20.248H22.1504ZM20.2504 22.148C21.2997 22.148 22.1504 21.2973 22.1504 20.248H21.6504C21.6504 21.0212 21.0236 21.648 20.2504 21.648V22.148ZM8.15021 22.148H20.2504V21.648H8.15021V22.148ZM6.25019 20.248C6.25019 21.2973 7.10086 22.148 8.15021 22.148V21.648C7.377 21.648 6.75019 21.0212 6.75019 20.248H6.25019ZM6.25019 19.4646V20.248H6.75019V19.4646H6.25019ZM7.36398 17.7348C6.68568 18.0432 6.25019 18.7195 6.25019 19.4646H6.75019C6.75019 18.9155 7.07108 18.4172 7.57088 18.19L7.36398 17.7348ZM8.45002 10.8991C8.45002 12.74 9.31533 14.3789 10.6604 15.4309L10.9684 15.037C9.73932 14.0757 8.95002 12.5797 8.95002 10.8991H8.45002ZM14.2001 5.14908C11.0244 5.14908 8.45002 7.72347 8.45002 10.8991H8.95002C8.95002 7.99962 11.3006 5.64908 14.2001 5.64908V5.14908ZM19.9502 10.8991C19.9502 7.72347 17.3758 5.14908 14.2001 5.14908V5.64908C17.0996 5.64908 19.4502 7.99962 19.4502 10.8991H19.9502ZM17.7398 15.4309C19.0848 14.3789 19.9502 12.74 19.9502 10.8991H19.4502C19.4502 12.5797 18.6608 14.0757 17.4317 15.037L17.7398 15.4309ZM21.4916 16.7347L17.6892 15.0064L17.4823 15.4616L21.2847 17.1899L21.4916 16.7347ZM23.2502 19.4659C23.2502 18.2894 22.5626 17.2215 21.4916 16.7347L21.2847 17.1899C22.1772 17.5956 22.7502 18.4855 22.7502 19.4659H23.2502ZM23.2502 20.2493V19.4659H22.7502V20.2493H23.2502ZM20.2502 23.2493C21.907 23.2493 23.2502 21.9061 23.2502 20.2493H22.7502C22.7502 21.63 21.6309 22.7493 20.2502 22.7493V23.2493ZM8.15001 23.2493H20.2502V22.7493H8.15001V23.2493ZM5.14998 20.2493C5.14998 21.9061 6.49314 23.2493 8.15001 23.2493V22.7493C6.76928 22.7493 5.64998 21.63 5.64998 20.2493H5.14998ZM5.14998 19.4659V20.2493H5.64998V19.4659H5.14998ZM6.90859 16.7347C5.83759 17.2215 5.14998 18.2894 5.14998 19.4659H5.64998C5.64998 18.4855 6.22299 17.5956 7.11549 17.1899L6.90859 16.7347ZM10.711 15.0064L6.90859 16.7347L7.11549 17.1899L10.9179 15.4616L10.711 15.0064ZM14.2009 15.5503C16.7691 15.5503 18.851 13.4684 18.851 10.9002H18.351C18.351 13.1923 16.4929 15.0503 14.2009 15.0503V15.5503ZM9.55085 10.9002C9.55085 13.4684 11.6327 15.5503 14.2009 15.5503V15.0503C11.9089 15.0503 10.0508 13.1923 10.0508 10.9002H9.55085ZM14.2009 6.25019C11.6327 6.25019 9.55085 8.33209 9.55085 10.9002H10.0508C10.0508 8.60823 11.9089 6.75019 14.2009 6.75019V6.25019ZM18.851 10.9002C18.851 8.33209 16.7691 6.25019 14.2009 6.25019V6.75019C16.4929 6.75019 18.351 8.60823 18.351 10.9002H18.851Z" fill="#FF5E5E"/>
</svg>
