<svg width="46" height="46" viewBox="0 0 46 46" fill="none" xmlns="http://www.w3.org/2000/svg">
<path d="M23 46C35.7025 46 46 35.7025 46 23C46 10.2975 35.7025 0 23 0C10.2975 0 0 10.2975 0 23C0 35.7025 10.2975 46 23 46Z" fill="#5D9BF8"/>
<path d="M23 13C17.48 13 13 17.48 13 23C13 28.52 17.48 33 23 33C28.52 33 33 28.52 33 23C33 17.48 28.52 13 23 13ZM23 29C22.2667 29 21.6667 28.4 21.6667 27.6667C21.6667 26.9333 22.2667 26.3333 23 26.3333C23.7333 26.3333 24.3333 26.9333 24.3333 27.6667C24.3333 28.4 23.7333 29 23 29ZM24.5267 18.66L24.08 24.0067C24.0333 24.5667 23.5667 25 23 25C22.4333 25 21.9667 24.5667 21.92 24.0067L21.4733 18.66C21.4 17.7667 22.1 17 23 17C23.8533 17 24.5333 17.6933 24.5333 18.5333C24.5333 18.5733 24.5333 18.62 24.5267 18.66Z" fill="white"/>
</svg>
