<svg width="15" height="26" viewBox="0 0 15 26" fill="none" xmlns="http://www.w3.org/2000/svg">
<path fill-rule="evenodd" clip-rule="evenodd" d="M11.8231 22.2727V19.4934C13.0643 19.2455 14 18.142 14 16.8182V9.18182C14 7.85801 13.0643 6.7545 11.8231 6.50662V3.72727C11.8231 2.22104 10.6117 1 9.11732 1H5.87039C4.37603 1 3.16462 2.22104 3.16462 3.72727V6.5091C1.92957 6.76179 1 7.86239 1 9.18182V16.8182C1 18.1376 1.92957 19.2382 3.16462 19.4909V22.2727C3.16462 23.779 4.37603 25 5.87039 25H9.11732C10.6117 25 11.8231 23.779 11.8231 22.2727ZM2.08222 9.18324C2.08222 8.2795 2.80907 7.54688 3.70568 7.54688H11.2941C12.1908 7.54688 12.9176 8.2795 12.9176 9.18324V16.8196C12.9176 17.7233 12.1908 18.456 11.2941 18.456H3.70568C2.80907 18.456 2.08222 17.7233 2.08222 16.8196V9.18324ZM10.7415 19.5469H4.24763V22.2741C4.24763 23.1779 4.97448 23.9105 5.87109 23.9105H9.11802C10.0146 23.9105 10.7415 23.1779 10.7415 22.2741V19.5469ZM10.7415 6.45348H4.24763V3.72621C4.24763 2.82247 4.97448 2.08984 5.87109 2.08984H9.11802C10.0146 2.08984 10.7415 2.82247 10.7415 3.72621V6.45348Z" fill="#69779A"/>
<path d="M11.8231 19.4934L11.7741 19.2482L11.5731 19.2884V19.4934H11.8231ZM11.8231 6.50662H11.5731V6.71162L11.7741 6.75177L11.8231 6.50662ZM3.16462 6.5091L3.21473 6.75403L3.41462 6.71313V6.5091H3.16462ZM3.16462 19.4909H3.41462V19.2869L3.21473 19.246L3.16462 19.4909ZM4.24763 19.5469V19.2969H3.99763V19.5469H4.24763ZM10.7415 19.5469H10.9915V19.2969H10.7415V19.5469ZM4.24763 6.45348H3.99763V6.70348H4.24763V6.45348ZM10.7415 6.45348V6.70348H10.9915V6.45348H10.7415ZM11.5731 19.4934V22.2727H12.0731V19.4934H11.5731ZM13.75 16.8182C13.75 18.0218 12.8993 19.0235 11.7741 19.2482L11.8721 19.7385C13.2292 19.4675 14.25 18.2621 14.25 16.8182H13.75ZM13.75 9.18182V16.8182H14.25V9.18182H13.75ZM11.7741 6.75177C12.8993 6.9765 13.75 7.97816 13.75 9.18182H14.25C14.25 7.73787 13.2292 6.5325 11.8721 6.26146L11.7741 6.75177ZM11.5731 3.72727V6.50662H12.0731V3.72727H11.5731ZM9.11732 1.25C10.4717 1.25 11.5731 2.35724 11.5731 3.72727H12.0731C12.0731 2.08484 10.7516 0.75 9.11732 0.75V1.25ZM5.87039 1.25H9.11732V0.75H5.87039V1.25ZM3.41462 3.72727C3.41462 2.35724 4.51597 1.25 5.87039 1.25V0.75C4.2361 0.75 2.91462 2.08484 2.91462 3.72727H3.41462ZM3.41462 6.5091V3.72727H2.91462V6.5091H3.41462ZM1.25 9.18182C1.25 7.98215 2.09504 6.98312 3.21473 6.75403L3.11451 6.26418C1.7641 6.54047 0.75 7.74263 0.75 9.18182H1.25ZM1.25 16.8182V9.18182H0.75V16.8182H1.25ZM3.21473 19.246C2.09504 19.0169 1.25 18.0179 1.25 16.8182H0.75C0.75 18.2574 1.7641 19.4595 3.11451 19.7358L3.21473 19.246ZM3.41462 22.2727V19.4909H2.91462V22.2727H3.41462ZM5.87039 24.75C4.51597 24.75 3.41462 23.6428 3.41462 22.2727H2.91462C2.91462 23.9152 4.2361 25.25 5.87039 25.25V24.75ZM9.11732 24.75H5.87039V25.25H9.11732V24.75ZM11.5731 22.2727C11.5731 23.6428 10.4717 24.75 9.11732 24.75V25.25C10.7516 25.25 12.0731 23.9152 12.0731 22.2727H11.5731ZM3.70568 7.29688C2.66914 7.29688 1.83222 8.1433 1.83222 9.18324H2.33222C2.33222 8.4157 2.949 7.79688 3.70568 7.79688V7.29688ZM11.2941 7.29688H3.70568V7.79688H11.2941V7.29688ZM13.1676 9.18324C13.1676 8.1433 12.3307 7.29688 11.2941 7.29688V7.79688C12.0508 7.79688 12.6676 8.4157 12.6676 9.18324H13.1676ZM13.1676 16.8196V9.18324H12.6676V16.8196H13.1676ZM11.2941 18.706C12.3307 18.706 13.1676 17.8595 13.1676 16.8196H12.6676C12.6676 17.5871 12.0508 18.206 11.2941 18.206V18.706ZM3.70568 18.706H11.2941V18.206H3.70568V18.706ZM1.83222 16.8196C1.83222 17.8595 2.66914 18.706 3.70568 18.706V18.206C2.949 18.206 2.33222 17.5871 2.33222 16.8196H1.83222ZM1.83222 9.18324V16.8196H2.33222V9.18324H1.83222ZM4.24763 19.7969H10.7415V19.2969H4.24763V19.7969ZM4.49763 22.2741V19.5469H3.99763V22.2741H4.49763ZM5.87109 23.6605C5.11441 23.6605 4.49763 23.0417 4.49763 22.2741H3.99763C3.99763 23.3141 4.83455 24.1605 5.87109 24.1605V23.6605ZM9.11802 23.6605H5.87109V24.1605H9.11802V23.6605ZM10.4915 22.2741C10.4915 23.0417 9.8747 23.6605 9.11802 23.6605V24.1605C10.1546 24.1605 10.9915 23.3141 10.9915 22.2741H10.4915ZM10.4915 19.5469V22.2741H10.9915V19.5469H10.4915ZM4.24763 6.70348H10.7415V6.20348H4.24763V6.70348ZM3.99763 3.72621V6.45348H4.49763V3.72621H3.99763ZM5.87109 1.83984C4.83455 1.83984 3.99763 2.68627 3.99763 3.72621H4.49763C4.49763 2.95867 5.11441 2.33984 5.87109 2.33984V1.83984ZM9.11802 1.83984H5.87109V2.33984H9.11802V1.83984ZM10.9915 3.72621C10.9915 2.68627 10.1546 1.83984 9.11802 1.83984V2.33984C9.8747 2.33984 10.4915 2.95867 10.4915 3.72621H10.9915ZM10.9915 6.45348V3.72621H10.4915V6.45348H10.9915Z" fill="#69779A"/>
</svg>
